<?xml version="1.0" encoding="UTF-8"?>
<svg id="_图层_1" data-name="图层 1" xmlns="http://www.w3.org/2000/svg" viewBox="0 0 128 128">
  <defs>
    <style>
      .cls-1 {
        fill: #0ea5e9;
      }
    </style>
  </defs>
  <path class="cls-1" d="m108.95,1.33l-.79.41.32.62.68-.17-.21-.86Zm-3.16-1.93v-.89h0v.89Zm-.02,0l-.89-.07-.08.96h.97s0-.89,0-.89Zm-7.28-5.4l-.87.18.22,1.03.98-.39-.33-.83Zm-17.57,1.4v.89s.85,0,.85,0l.04-.85-.89-.04Zm-.01,0v-.89s0,0,0,0v.89Zm-4.4,2.31l-.45.77.71.42.47-.68-.73-.5Zm-10.2,3.48l.06.89.55-.04.21-.52s-.82-.33-.82-.33Zm.38,9.76c-2.45,0-4.44-1.99-4.44-4.44h-1.78c0,3.44,2.79,6.22,6.22,6.22v-1.78Zm43.56,0h-43.56v1.78h43.56v-1.78Zm4.44-4.44c0,2.45-1.99,4.44-4.44,4.44v1.78c3.44,0,6.22-2.79,6.22-6.22h-1.78Zm-4.44-4.44c2.45,0,4.44,1.99,4.44,4.44h1.78c0-3.44-2.79-6.22-6.22-6.22v1.78Zm-1.07.13c.34-.08.7-.13,1.07-.13V.29c-.51,0-1.01.06-1.49.18l.43,1.73Zm-3.38-1.91c1,0,1.92.56,2.37,1.45l1.58-.81c-.76-1.48-2.29-2.42-3.95-2.42V.29Zm-.02,0h.02v-1.78h-.02V.29Zm-.87-1.33c0,.13,0,.25-.02.37l1.77.15c.01-.17.02-.34.02-.52,0,0-1.78,0-1.78,0Zm-4.44-4.44c2.45,0,4.44,1.99,4.44,4.44h1.78c0-3.44-2.79-6.22-6.22-6.22v1.78Zm-1.64.31c.52-.21,1.08-.31,1.64-.31v-1.78c-.81,0-1.59.16-2.3.44l.66,1.65h0Zm-9.03-6.98c3.85,0,7.06,2.72,7.83,6.34l1.74-.37c-.94-4.43-4.86-7.75-9.57-7.75v1.78Zm-7.99,7.6c.21-4.23,3.71-7.6,7.99-7.6v-1.78c-5.24,0-9.51,4.12-9.77,9.29,0,0,1.78.09,1.78.09Zm-.9.85h.01v-1.78s0,0,0,0v1.78Zm-3.66,1.93c.83-1.21,2.2-1.93,3.66-1.93v-1.78c-2.13,0-4.01,1.07-5.13,2.7,0,0,1.46,1.01,1.46,1.01Zm-4.34-.59c1.15,0,2.23.31,3.15.86l.9-1.53c-1.23-.72-2.63-1.1-4.06-1.1v1.78Zm-5.77,3.9c.92-2.29,3.16-3.9,5.77-3.9v-1.78c-3.36,0-6.24,2.08-7.42,5.01l1.65.66h0Zm-4.89,4.99c0-2.35,1.82-4.27,4.13-4.43l-.12-1.77c-3.23.23-5.78,2.92-5.78,6.21h1.78Z"/>
  <path class="cls-1" d="m108.95,129.33l-.79.41.32.62.68-.17-.21-.86h0Zm-3.16-1.93v-.89h0v.89Zm-.02,0l-.89-.07-.08.96h.97s0-.89,0-.89Zm-7.28-5.4l-.87.18.22,1.03.98-.39-.33-.83Zm-17.57,1.4v.89s.85,0,.85,0l.04-.85-.89-.04h0Zm-.01,0v-.89s0,0,0,0v.89Zm-4.4,2.31l-.45.77.71.42.47-.68-.73-.5Zm-10.2,3.48l.06.89.55-.04.21-.52-.82-.33h0Zm.38,9.76c-2.45,0-4.44-1.99-4.44-4.44h-1.78c0,3.44,2.79,6.22,6.22,6.22v-1.78Zm43.56,0h-43.56v1.78h43.56v-1.78Zm4.44-4.44c0,2.45-1.99,4.44-4.44,4.44v1.78c3.44,0,6.22-2.79,6.22-6.22h-1.78Zm-4.44-4.44c2.45,0,4.44,1.99,4.44,4.44h1.78c0-3.44-2.79-6.22-6.22-6.22v1.78Zm-1.07.13c.34-.08.7-.13,1.07-.13v-1.78c-.51,0-1.01.06-1.49.18l.43,1.73Zm-3.38-1.91c1,0,1.92.56,2.37,1.45l1.58-.81c-.76-1.48-2.29-2.42-3.95-2.42v1.78Zm-.02,0h.02v-1.78h-.02v1.78Zm-.87-1.33c0,.13,0,.25-.02.37l1.77.15c.01-.17.02-.34.02-.52h-1.78Zm-4.44-4.44c2.45,0,4.44,1.99,4.44,4.44h1.78c0-3.44-2.79-6.22-6.22-6.22v1.78Zm-1.64.31c.52-.21,1.08-.31,1.64-.31v-1.78c-.79,0-1.57.15-2.3.44,0,0,.66,1.65.66,1.65Zm-9.03-6.98c3.85,0,7.06,2.72,7.83,6.34l1.74-.37c-.94-4.43-4.86-7.75-9.57-7.75v1.78Zm-7.99,7.6c.21-4.23,3.71-7.6,7.99-7.6v-1.78c-5.24,0-9.51,4.12-9.77,9.29l1.78.09h0Zm-.9.85h.01v-1.78s0,0,0,0v1.78Zm-3.66,1.93c.83-1.21,2.2-1.93,3.66-1.93v-1.78c-2.13,0-4.01,1.07-5.13,2.7,0,0,1.46,1.01,1.46,1.01Zm-4.34-.59c1.15,0,2.23.31,3.15.86l.9-1.53c-1.23-.72-2.63-1.1-4.06-1.1v1.78Zm-5.77,3.9c.92-2.29,3.16-3.9,5.77-3.9v-1.78c-3.36,0-6.24,2.08-7.42,5.01l1.65.66h0Zm-4.89,4.99c0-2.35,1.82-4.27,4.13-4.43l-.12-1.77c-3.23.23-5.78,2.92-5.78,6.21h1.78Z"/>
  <path class="cls-1" d="m51.87,89.38l-.8-.02-.02,1.05,1.02-.26s-.2-.77-.2-.77Zm-5.6-4.82l-.79.08.09.85.84-.14s-.13-.79-.13-.79Zm-5.33-2.02l-.63.49.53.68.63-.58s-.54-.59-.54-.59Zm-7.71-1.84l-.77.22.26.9.85-.4-.34-.72Zm-15.62,1.59l.2.77.56-.14.04-.57s-.8-.06-.8-.06Zm-4.35,3.8l.06.8.5-.04.19-.46-.74-.3Zm.34,8.76c-2.2,0-3.99-1.79-3.99-3.99h-1.59c0,3.08,2.5,5.58,5.58,5.58v-1.59Zm39.07,0H13.6v1.59h39.07v-1.59Zm2.39-2.39c0,1.32-1.07,2.39-2.39,2.39v1.59c2.2,0,3.99-1.79,3.99-3.99h-1.59Zm-2.39-2.39c1.32,0,2.39,1.07,2.39,2.39h1.59c0-2.2-1.79-3.99-3.99-3.99v1.59Zm-.6.08c.2-.05.4-.08.6-.08v-1.59c-.34,0-.68.04-1,.13l.4,1.54Zm-1-.87v.08s1.59.03,1.59.03v-.12s-1.59,0-1.59,0Zm-3.99-3.99c2.2,0,3.99,1.79,3.99,3.99h1.59c0-3.08-2.5-5.58-5.58-5.58v1.59Zm-.68.06c.22-.04.45-.06.68-.06v-1.59c-.32,0-.64.03-.95.08,0,0,.27,1.57.27,1.57Zm-3.31-2.85c1.23,0,2.25.93,2.38,2.14l1.59-.16c-.21-2.01-1.9-3.58-3.97-3.58v1.59Zm-1.62.63c.44-.41,1.02-.63,1.62-.63v-1.59c-1,0-1.97.38-2.7,1.05,0,0,1.08,1.17,1.08,1.17Zm-5.56-2.23c1.78,0,3.37.83,4.39,2.13l1.25-.99c-1.36-1.73-3.44-2.74-5.64-2.74v1.59Zm-2.36.52c.74-.34,1.54-.52,2.36-.52v-1.59c-1.08,0-2.11.24-3.04.67,0,0,.68,1.44.68,1.44Zm-8.01-5.71c3.28,0,6.04,2.2,6.9,5.2l1.53-.44c-1.05-3.67-4.43-6.36-8.44-6.36v1.59Zm-7.16,6.63c.28-3.71,3.38-6.63,7.16-6.63v-1.59c-4.62,0-8.41,3.57-8.75,8.11,0,0,1.59.12,1.59.12Zm-4.4,4.04c.67-1.65,2.08-2.89,3.8-3.33l-.39-1.55c-2.22.57-4.04,2.16-4.89,4.28l1.48.6Zm-4.39,4.48c0-2.11,1.63-3.83,3.7-3.98l-.11-1.59c-2.9.2-5.19,2.62-5.19,5.57h1.59Z"/>
  <path class="cls-1" d="m108.98,76.98l.05-.78-.83-.05v.83h.78Zm.35-12.48l-.78.09.08.7h.7s0-.79,0-.79Zm-13.83-.78l-.03.78.65.02.14-.63-.76-.17h0Zm-4.8,3.97l-.14.77.79.14.12-.79-.77-.12Zm18.29,9.29v.78h.78v-.78h-.78Zm.39-.78c-.12,0-.23,0-.34-.01l-.1,1.56c.15,0,.29.01.44.01,0,0,0-1.56,0-1.56Zm5.46-5.46c0,3.02-2.45,5.46-5.46,5.46v1.56c3.88,0,7.02-3.14,7.02-7.02h-1.56Zm-5.46-5.46c3.02,0,5.46,2.45,5.46,5.46h1.56c0-3.88-3.14-7.02-7.02-7.02v1.56Zm-.04,0h.04v-1.56h-.05v1.56Zm-6.99-6.24c3.21,0,5.86,2.43,6.21,5.55l1.55-.17c-.43-3.9-3.74-6.94-7.76-6.94v1.56Zm-6.09,4.86c.63-2.78,3.12-4.86,6.09-4.86v-1.56c-3.72,0-6.82,2.6-7.61,6.07l1.52.34h0Zm-.93.6s.1,0,.15,0l.06-1.56c-.07,0-.13,0-.2,0v1.56Zm-3.86,3.31c.28-1.88,1.9-3.31,3.86-3.31v-1.56c-2.74,0-5,2.01-5.4,4.64l1.54.23Zm-1.61.59c.24,0,.47.02.7.06l.28-1.54c-.32-.06-.65-.09-.97-.09v1.56Zm-3.9,3.9c0-2.16,1.75-3.9,3.9-3.9v-1.56c-3.02,0-5.46,2.45-5.46,5.46h1.56Zm3.9,3.9c-2.16,0-3.9-1.75-3.9-3.9h-1.56c0,3.02,2.45,5.46,5.46,5.46v-1.56Zm19.12,0h-19.12v1.56h19.12v-1.56Zm-.78.77h0s1.56.01,1.56.01h0s-1.56-.01-1.56-.01Z"/>
  <path class="cls-1" d="m8.87,27.9l-.62-.2-.19.61.6.21.21-.62h0Zm-3.93-2.96l-.59.27.32.7.64-.43-.36-.54Zm-9.91,2.85l-.09.65.85.12-.11-.85-.65.08Zm-.37,4.54c-1.08,0-1.96-.88-1.96-1.96h-1.3c0,1.8,1.46,3.26,3.26,3.26v-1.3Zm13.36,0H-5.35v1.3h13.36v-1.3Zm1.96-1.96c0,1.08-.88,1.96-1.96,1.96v1.3c1.8,0,3.26-1.46,3.26-3.26h-1.3Zm-1.31-1.85c.79.27,1.31,1.01,1.31,1.85h1.3c0-1.43-.92-2.64-2.19-3.08,0,0-.43,1.23-.43,1.23Zm-.31-1.41c0,.21-.03.41-.09.6l1.24.4c.1-.32.15-.66.15-.99h-1.3Zm-1.96-1.96c1.08,0,1.96.88,1.96,1.96h1.3c0-1.8-1.46-3.26-3.26-3.26v1.3Zm-1.09.33c.32-.22.7-.33,1.09-.33v-1.3c-.67,0-1.29.2-1.81.55l.73,1.08h0ZM.19,22.54c1.84,0,3.43,1.09,4.15,2.67l1.19-.54c-.93-2.02-2.97-3.43-5.34-3.43v1.3Zm-4.56,4.56c0-2.52,2.04-4.56,4.56-4.56v-1.3c-3.24,0-5.87,2.63-5.87,5.87h1.3Zm.04.59c-.03-.2-.04-.4-.04-.59h-1.3c0,.26.02.51.05.76l1.29-.17Zm-1.02.71c.09,0,.19,0,.28.02l.18-1.29c-.15-.02-.31-.03-.46-.03v1.3Zm-1.96,1.96c0-1.08.88-1.96,1.96-1.96v-1.3c-1.8,0-3.26,1.46-3.26,3.26h1.3Z"/>
  <path class="cls-1" d="m136.87,27.96l-.62-.2-.19.61.6.21.21-.62h0Zm-3.93-2.96l-.59.27.32.7.64-.43-.36-.54Zm-9.91,2.85l-.09.65.85.12-.11-.85s-.65.08-.65.08Zm-.37,4.54c-1.08,0-1.96-.88-1.96-1.96h-1.3c0,1.8,1.46,3.26,3.26,3.26v-1.3Zm13.36,0h-13.36v1.3h13.36v-1.3Zm1.96-1.96c0,1.08-.88,1.96-1.96,1.96v1.3c1.8,0,3.26-1.46,3.26-3.26h-1.3Zm-1.31-1.85c.79.27,1.31,1.01,1.31,1.85h1.3c0-1.43-.92-2.64-2.19-3.08,0,0-.43,1.23-.43,1.23Zm-.31-1.41c0,.21-.03.41-.09.6l1.24.4c.1-.32.15-.66.15-.99h-1.3Zm-1.96-1.96c1.08,0,1.96.88,1.96,1.96h1.3c0-1.8-1.46-3.26-3.26-3.26v1.3Zm-1.09.33c.32-.22.7-.33,1.09-.33v-1.3c-.67,0-1.29.2-1.81.55l.73,1.08h0Zm-5.11-2.94c1.84,0,3.43,1.09,4.15,2.67l1.19-.54c-.93-2.02-2.97-3.43-5.34-3.43v1.3Zm-4.56,4.56c0-2.52,2.04-4.56,4.56-4.56v-1.3c-3.24,0-5.87,2.63-5.87,5.87h1.3Zm.04.59c-.03-.2-.04-.4-.04-.59h-1.3c0,.26.02.51.05.76l1.29-.17Zm-1.02.71c.09,0,.19,0,.28.02l.18-1.29c-.15-.02-.31-.03-.46-.03v1.3Zm-1.96,1.96c0-1.08.88-1.96,1.96-1.96v-1.3c-1.8,0-3.26,1.46-3.26,3.26h1.3Z"/>
  <path class="cls-1" d="m53.34,41.27h-.69v.69h.69v-.69Zm-8.23,0h-.69s.69,0,.69,0Zm0,.02l-.08.68.77.1v-.78s-.69,0-.69,0Zm8.23.66c1.14,0,2.06.92,2.06,2.06h1.37c0-1.89-1.54-3.43-3.43-3.43v1.37Zm-4.11-4.11c1.89,0,3.43,1.54,3.43,3.43h1.37c0-2.65-2.15-4.8-4.8-4.8v1.37Zm-3.43,3.43c0-1.89,1.54-3.43,3.43-3.43v-1.37c-2.65,0-4.8,2.15-4.8,4.8h1.37Zm0,.02v-.02h-1.37v.02h1.37Zm-1.03.67c.09,0,.17,0,.26.02l.17-1.36c-.14-.02-.28-.03-.43-.03v1.37Zm-2.06,2.06c0-1.14.92-2.06,2.06-2.06v-1.37c-1.89,0-3.43,1.54-3.43,3.43h1.37Zm2.06,2.06c-1.14,0-2.06-.92-2.06-2.06h-1.37c0,1.89,1.54,3.43,3.43,3.43v-1.37Zm8.57,0h-8.57v1.37h8.57v-1.37Zm2.06-2.06c0,1.14-.92,2.06-2.06,2.06v1.37c1.89,0,3.43-1.54,3.43-3.43h-1.37Z"/>
</svg>