<?xml version="1.0" encoding="UTF-8"?>
<svg id="_图层_1" data-name="图层 1" xmlns="http://www.w3.org/2000/svg" xmlns:xlink="http://www.w3.org/1999/xlink" viewBox="0 0 480.55 612.33">
  <defs>
    <style>
      .cls-1 {
        fill: url(#_未命名的渐变_614);
      }

      .cls-2 {
        fill: url(#_未命名的渐变_610);
      }

      .cls-3 {
        fill: url(#_未命名的渐变_279-2);
      }

      .cls-4 {
        fill: url(#_未命名的渐变_279);
      }

      .cls-5 {
        fill: url(#_未命名的渐变_614-2);
      }

      .cls-6 {
        fill: url(#_未命名的渐变_610-2);
      }

      .cls-7 {
        fill: none;
      }

      .cls-8 {
        fill: url(#_未命名的渐变_610-3);
      }
    </style>
    <linearGradient id="_未命名的渐变_610" data-name="未命名的渐变 610" x1="100.31" y1="39.83" x2="548.9" y2="142.78" gradientTransform="translate(-82.12 111.65) rotate(-17.93)" gradientUnits="userSpaceOnUse">
      <stop offset="0" stop-color="#ffad02"/>
      <stop offset=".07" stop-color="#ffb910"/>
      <stop offset=".17" stop-color="#ffc721"/>
      <stop offset=".3" stop-color="#ffd12d"/>
      <stop offset=".49" stop-color="#ffd734"/>
      <stop offset="1" stop-color="#ffd936"/>
    </linearGradient>
    <linearGradient id="_未命名的渐变_610-2" data-name="未命名的渐变 610" x1="108.99" y1="504.99" x2="245.66" y2="536.35" xlink:href="#_未命名的渐变_610"/>
    <linearGradient id="_未命名的渐变_614" data-name="未命名的渐变 614" x1="32.89" y1="199.16" x2="163.83" y2="229.22" gradientTransform="translate(-82.12 111.65) rotate(-17.93)" gradientUnits="userSpaceOnUse">
      <stop offset="0" stop-color="#ffe6a2"/>
      <stop offset="1" stop-color="#ffd936"/>
    </linearGradient>
    <linearGradient id="_未命名的渐变_614-2" data-name="未命名的渐变 614" x1="47.47" y1="454.24" x2="147.24" y2="477.14" xlink:href="#_未命名的渐变_614"/>
    <linearGradient id="_未命名的渐变_610-3" data-name="未命名的渐变 610" x1="111.97" y1="312.02" x2="361.68" y2="369.32" xlink:href="#_未命名的渐变_610"/>
    <linearGradient id="_未命名的渐变_279" data-name="未命名的渐变 279" x1="209.36" y1="465.68" x2="328.36" y2="465.68" gradientTransform="translate(-82.12 111.65) rotate(-17.93)" gradientUnits="userSpaceOnUse">
      <stop offset="0" stop-color="#ffbb0c"/>
      <stop offset="1" stop-color="#ff9d06"/>
    </linearGradient>
    <linearGradient id="_未命名的渐变_279-2" data-name="未命名的渐变 279" x1="328.36" y1="254.18" x2="447.36" y2="254.18" xlink:href="#_未命名的渐变_279"/>
  </defs>
  <path class="cls-2" d="m478.61,27.68c3.39,10.47,2.18,21.37-2.48,30.5-4.67,9.13-12.8,16.49-23.26,19.87L89.41,195.62l-12.31-38.06c-3.39-10.47-10.74-18.6-19.87-23.26-9.13-4.67-20.03-5.87-30.5-2.48L428.25,1.93c20.93-6.77,43.6,4.82,50.37,25.75Z"/>
  <path class="cls-6" d="m313.85,525.56c3.39,10.47,2.18,21.37-2.48,30.5-4.52,8.84-12.29,16.03-22.29,19.55-.32.11-.64.22-.98.33l-106.56,34.47c20.93-6.77,32.52-29.44,25.75-50.37l-12.31-38.06,68.51-22.16c20.93-6.77,43.6,4.82,50.37,25.75Z"/>
  <path class="cls-1" d="m78.05,157.25l74.79,231.2c6.77,20.93-4.82,43.6-25.75,50.37-10.47,3.39-21.37,2.18-30.5-2.48-9.13-4.67-16.49-12.8-19.87-23.26L1.93,181.88c-6.77-20.93,4.82-43.6,25.75-50.37,10.47-3.39,21.37-2.18,30.5,2.48s16.49,12.8,19.87,23.26Z"/>
  <path class="cls-5" d="m176.51,464.88l30.78,95.15c6.77,20.93-4.82,43.6-25.75,50.37-10.47,3.39-21.37,2.18-30.5-2.48-9.13-4.67-16.49-12.8-19.87-23.26l-30.78-95.15c-6.77-20.93,4.82-43.6,25.75-50.37,10.47-3.39,21.37-2.18,30.5,2.48,9.13,4.67,16.49,12.8,19.87,23.26Z"/>
  <path class="cls-8" d="m371.68,317.67c3.39,10.47,2.18,21.37-2.48,30.5s-12.24,15.97-22.17,19.51c-.36.13-.73.25-1.09.36l-219.79,71.1c20.93-6.77,32.52-29.44,25.75-50.37l-12.31-38.06,181.73-58.79c20.93-6.77,43.6,4.82,50.37,25.75Z"/>
  <path class="cls-7" d="m263.48,499.81l-68.51,22.16-18.47-57.09c-3.39-10.47-10.74-18.6-19.87-23.26-9.13-4.67-20.03-5.87-30.5-2.48l144.62-46.78c15.7,48.52,34.58,93.91-7.28,107.46Z"/>
  <path class="cls-4" d="m345.93,368.04c29.15,90.11,48.62,172.91-56.85,207.56,9.99-3.52,17.77-10.71,22.29-19.55,4.67-9.13,5.87-20.03,2.48-30.5-6.77-20.93-29.44-32.52-50.37-25.75,41.86-13.54,22.98-58.93,7.28-107.46l75.17-24.31Z"/>
  <path class="cls-7" d="m309.2,124.52c24.62,76.12,50.17,155.09,12.11,167.4l-181.73,58.79-50.17-155.09,219.79-71.1Z"/>
  <path class="cls-3" d="m347.02,367.68c9.93-3.54,17.67-10.71,22.17-19.51s5.87-20.03,2.48-30.5c-6.77-20.93-29.44-32.52-50.37-25.75,38.06-12.31,12.51-91.28-12.11-167.4l75.17-24.31c24.55,75.88,76.36,229.6-37.34,267.47Z"/>
</svg>