<?xml version="1.0" encoding="UTF-8"?>
<svg id="_图层_3" data-name="图层 3" xmlns="http://www.w3.org/2000/svg" viewBox="0 0 650.05 650.52">
  <defs>
    <style>
      .cls-1 {
        fill: #de2910;
      }
    </style>
  </defs>
  <path class="cls-1" d="m62.25,579.18c-16.71-20.28-29.2-43.64-39.22-67.85-29.6-71.54-31.28-154.39-1.45-226.8,8.75-21.57,19.97-42.32,33.24-61.33,16.2-24.66,41.76-49.29,62.16-70.53,0,0,26.07,28.49,26.07,28.49,23.94,26.01,52.29,47.61,84.44,62.85,98.24,46.83,230.78,28.04,306.97-51.48,0,0,14.3-15.28,14.3-15.28l14.35,12.93c27.37,24.75,46.92,56.08,60.7,89.53,37.61,93.86,38.02,214.15-19.9,299.56,0,0-5.93-3.71-5.93-3.71,46.03-85.65,37.35-196.75-4.52-282.02-13.92-27.42-32.57-53.31-56.6-71.94,0,0,28.65-2.35,28.65-2.35-13.91,17.23-30.2,32.37-47.91,45.38-124.57,90.43-321.76,80.99-428.18-34,0,0,53.07.62,53.07.62-92.13,93.46-111.5,207.74-77.7,332.47,1.1,3.99,2.29,8.07,3.53,11.93,0,0-6.04,3.54-6.04,3.54h0Z"/>
  <path class="cls-1" d="m210.55,578.21c-9.68-10.76-16.6-23.57-21.87-37.01-8.99-23.51-11.5-49.05-6.57-74.03,2.89-15.2,8.71-30.03,16.57-43.34,5.89-10.24,13.3-19.51,21.39-28.08,1.83-2.6,10.47-7.48,16.48-6.38,5.48-1.13,15.65,7.57,14.07,6.72,0,0,.08.08.08.08,23.2,25.38,55.46,40.24,90.17,39.01,20.24-.48,40.52-5.67,58.21-15.56,8.14-4.6,15.68-10.33,22.2-17.02-.56.91-.09-.8,4.4-3.21,3.46-1.49,7.65-1.18,10.9.87,2.67,1.94.81.6,1.43,1.07,1.06.98,2.36,2.31,3.38,3.29,12.79,13.05,21.6,29.64,27.2,46.82,7.77,24.11,10.01,49.94,6.22,74.96-2.73,18.42-9.13,36.7-19.92,51.88,0,0-3.39-2.12-3.39-2.12,6.95-13.12,10.73-27.43,12.26-42.03,3.82-38.73-8.54-88.57-39.59-113.92,0,0-.75-.6-.75-.6l-.37-.3s-.09-.08-.09-.08c.55.4-1.37-1.01,1.22.88,3.16,2.01,7.25,2.31,10.63.85,4.4-2.38,4.82-4,4.19-3.02-51.31,63.31-163.73,66.11-218.98,6.46-1.64-.93,8.44,7.71,13.83,6.58,5.92,1.09,14.46-3.75,16.23-6.28l-.08.09s-.33.37-.33.37c-.57.6-1.45,1.63-2,2.21-26.01,27.57-39.54,58.63-40.01,96.75-.24,17.53,2.02,34.71,6.35,52.09,0,0-3.45,2.02-3.45,2.02h0Z"/>
  <path class="cls-1" d="m299.33,577.63c-5.9-9.71-7.8-22.24-4.1-33.16,0,0,.84-2.38.84-2.38.45-1.12,1.11-2.32,1.62-3.43,1.49-3.3,4.88-5.69,8.51-6.08,2.13-.26,4.36.15,6.31,1.12,1.22.64,2.89,1.7,4.13,2.23,5.12,2.48,10.97,3.49,16.63,3.12,5.69-.3,11.21-2.25,15.71-5.2,2.31-1.42,4.21-3.72,6.88-4.5,4.15-1.43,9.06.29,11.46,3.96,3.15,4.66,5.1,10.07,5.9,15.59,1.45,9.98-.39,21.26-7.48,28.75,0,0-.85-.53-.85-.53,1.94-5.87,2.27-11.87,1.54-17.85-.95-6.95-3.11-13.89-7.23-19.51,0,0-.29-.4-.29-.4,0,0-.14-.2-.14-.2-.01-.01,0,0,0,0,.02.03.1.09.13.1.02.02.04-.02.06-.03.01,0,.01-.03.02-.03,0-.01,0,0,0-.01h0s-.12.08-.12.08c-13.46,10.02-33.72,10.46-47.53,1.16,0,0-1.07-.73-1.07-.73l-.44-.3c-.89-.67-1.99-1.03-3.14-1.01-1.91.03-3.69,1.12-4.59,2.85,0,0-.57.95-.57.95-.77,1.07-1.52,2.71-2.08,3.91,0,0-.48,1.01-.48,1.01l-.37,1.05c-2.4,6.38-2.62,13.45-1.24,20.14.61,3.02,1.52,6.04,2.82,8.84,0,0-.86.51-.86.51h0Z"/>
</svg>