<?xml version="1.0" encoding="UTF-8"?>
<svg id="_图层_1" data-name="图层 1" xmlns="http://www.w3.org/2000/svg" viewBox="0 0 138.13 40.23">
  <path d="m26.28,31.23h-.22l-.72-.36c-.24-.29-.38-.61-.43-.97l-.36-18.4-8.53,11.81c-.26.48-.58.72-.94.72-.31,0-.67-.22-1.08-.65L5.36,11.86c.14,8.52.34,14.44.58,17.75l-.36.68c-.26.24-.61.36-1.04.36h-.22l-.68-.36c-.48-1.92-.73-3.91-.76-5.96-.02-2.05-.18-7.23-.47-15.53.05-.38.26-.75.65-1.1.38-.35.9-.52,1.55-.52,1.39.67,4.78,4.85,10.15,12.53.94-.98,2.75-3.3,5.44-6.95,2.76-3.77,4.56-5.65,5.4-5.65.62,0,1.06.38,1.3,1.13.24.76.38,1.65.43,2.68.05,1.03.17,7.45.36,19.26l-.36.68c-.29.24-.64.36-1.04.36Z"/>
  <path d="m40.79,30.73c-1.22-.19-2.41-.45-3.55-.77-1.14-.32-2.11-.95-2.92-1.87s-1.29-1.91-1.46-2.97c-.14-.77-.22-1.55-.22-2.34,0-.29.02-.77.07-1.46.05-.68.27-1.47.67-2.36.4-.89,1.06-1.78,2-2.66.94-.89,2.08-1.56,3.42-2.02,1.03-.34,2.08-.5,3.13-.5.29,0,.84.04,1.66.13.82.08,1.85.73,3.11,1.93,1.26,1.2,2.11,2.34,2.54,3.42.31.79.47,1.62.47,2.48,0,.31-.05.85-.14,1.62-.1.77-.31,1.67-.63,2.72s-.93,2.01-1.82,2.9c-.89.89-1.88,1.4-2.99,1.55-1.1.14-2.22.22-3.35.22Zm1.33-2.84c1.03,0,1.84-.11,2.41-.32.79-.53,1.33-1.19,1.62-1.98.48-1.39.72-2.52.72-3.38,0-.38-.04-.92-.13-1.62-.08-.7-.45-1.42-1.1-2.18s-1.3-1.29-1.94-1.6c-.58-.24-1.2-.36-1.87-.36-.91,0-1.73.18-2.45.54-1.9.96-3.1,2.16-3.6,3.6-.29.77-.43,1.61-.43,2.52,0,.17.02.58.05,1.22s.38,1.29,1.03,1.93c.65.64,1.4,1.06,2.27,1.28.94.24,2.08.36,3.42.36Z"/>
  <path d="m61.34,30.73c-1.22-.19-2.41-.45-3.55-.77-1.14-.32-2.11-.95-2.92-1.87s-1.29-1.91-1.46-2.97c-.14-.77-.22-1.55-.22-2.34,0-.29.02-.77.07-1.46.05-.68.27-1.47.67-2.36.4-.89,1.06-1.78,2-2.66.94-.89,2.08-1.56,3.42-2.02,1.03-.34,2.08-.5,3.13-.5.29,0,.84.04,1.66.13.82.08,1.85.73,3.11,1.93,1.26,1.2,2.11,2.34,2.54,3.42.31.79.47,1.62.47,2.48,0,.31-.05.85-.14,1.62-.1.77-.3,1.67-.63,2.72s-.93,2.01-1.82,2.9c-.89.89-1.88,1.4-2.99,1.55-1.1.14-2.22.22-3.35.22Zm1.33-2.84c1.03,0,1.84-.11,2.41-.32.79-.53,1.33-1.19,1.62-1.98.48-1.39.72-2.52.72-3.38,0-.38-.04-.92-.13-1.62-.08-.7-.45-1.42-1.1-2.18s-1.3-1.29-1.94-1.6c-.58-.24-1.2-.36-1.87-.36-.91,0-1.73.18-2.45.54-1.9.96-3.1,2.16-3.6,3.6-.29.77-.43,1.61-.43,2.52,0,.17.02.58.05,1.22s.38,1.29,1.03,1.93c.65.64,1.4,1.06,2.27,1.28.94.24,2.08.36,3.42.36Z"/>
  <path d="m81.9,30.73c-1.22-.19-2.41-.45-3.55-.77-1.14-.32-2.11-.95-2.92-1.87s-1.29-1.91-1.46-2.97c-.14-.77-.22-1.55-.22-2.34,0-.29.02-.77.07-1.46.05-.68.27-1.47.67-2.36.4-.89,1.06-1.78,2-2.66.94-.89,2.08-1.56,3.42-2.02,1.03-.34,2.08-.5,3.13-.5.29,0,.84.04,1.66.13.82.08,1.85.73,3.12,1.93,1.26,1.2,2.11,2.34,2.54,3.42.31.79.47,1.62.47,2.48,0,.31-.05.85-.14,1.62-.1.77-.31,1.67-.63,2.72s-.93,2.01-1.82,2.9c-.89.89-1.88,1.4-2.99,1.55-1.1.14-2.22.22-3.35.22Zm1.33-2.84c1.03,0,1.84-.11,2.41-.32.79-.53,1.33-1.19,1.62-1.98.48-1.39.72-2.52.72-3.38,0-.38-.04-.92-.13-1.62-.08-.7-.45-1.42-1.1-2.18s-1.3-1.29-1.94-1.6c-.58-.24-1.2-.36-1.87-.36-.91,0-1.73.18-2.45.54-1.9.96-3.1,2.16-3.6,3.6-.29.77-.43,1.61-.43,2.52,0,.17.02.58.05,1.22s.38,1.29,1.03,1.93c.65.64,1.4,1.06,2.27,1.28.94.24,2.08.36,3.42.36Z"/>
  <path d="m102.46,30.73c-1.22-.19-2.41-.45-3.55-.77-1.14-.32-2.11-.95-2.92-1.87s-1.29-1.91-1.46-2.97c-.14-.77-.22-1.55-.22-2.34,0-.29.02-.77.07-1.46.05-.68.27-1.47.67-2.36.4-.89,1.06-1.78,2-2.66.94-.89,2.08-1.56,3.42-2.02,1.03-.34,2.08-.5,3.13-.5.29,0,.84.04,1.66.13.82.08,1.85.73,3.11,1.93,1.26,1.2,2.11,2.34,2.54,3.42.31.79.47,1.62.47,2.48,0,.31-.05.85-.14,1.62-.1.77-.31,1.67-.63,2.72s-.93,2.01-1.82,2.9c-.89.89-1.88,1.4-2.99,1.55-1.1.14-2.22.22-3.35.22Zm1.33-2.84c1.03,0,1.84-.11,2.41-.32.79-.53,1.33-1.19,1.62-1.98.48-1.39.72-2.52.72-3.38,0-.38-.04-.92-.13-1.62-.08-.7-.45-1.42-1.1-2.18-.65-.76-1.3-1.29-1.94-1.6-.58-.24-1.2-.36-1.87-.36-.91,0-1.73.18-2.45.54-1.9.96-3.1,2.16-3.6,3.6-.29.77-.43,1.61-.43,2.52,0,.17.02.58.05,1.22s.38,1.29,1.03,1.93c.65.64,1.4,1.06,2.27,1.28.94.24,2.08.36,3.42.36Z"/>
  <path d="m120.56,31.37c-1.03,0-2.02-.49-2.95-1.48-.84-.86-1.38-2.06-1.62-3.6-.26-1.1-.4-3.25-.4-6.44l-.04-11.27c0-1.34.01-2.33.04-2.95.22-.77.65-1.15,1.3-1.15.82,0,1.31.43,1.48,1.3v15.01c0,1.9.07,3.35.22,4.36.19,2.16.88,3.24,2.05,3.24.79,0,2.06-.3,3.82-.9l.72.32c.24.29.36.65.36,1.08v.22l-.5.86c-1.3.94-2.79,1.4-4.46,1.4Z"/>
  <path d="m132.98,31.37c-1.03,0-2.02-.49-2.95-1.48-.84-.86-1.38-2.06-1.62-3.6-.26-1.1-.4-3.25-.4-6.44l-.04-11.27c0-1.34.01-2.33.04-2.95.22-.77.65-1.15,1.3-1.15.82,0,1.31.43,1.48,1.3v15.01c0,1.9.07,3.35.22,4.36.19,2.16.88,3.24,2.05,3.24.79,0,2.06-.3,3.82-.9l.72.32c.24.29.36.65.36,1.08v.22l-.5.86c-1.3.94-2.79,1.4-4.46,1.4Z"/>
</svg>